<svg xmlns="http://www.w3.org/2000/svg" width="1580" height="1120" viewBox="0 0 1580 1120">
<rect width="1580" height="1120" fill="#ffffff"/>
<text x="54" y="34" font-size="22" font-weight="700" font-family="Arial" fill="#0f172a">laser_coupled 1D vertical profiles: t0015</text>
<text x="54" y="56" font-size="13" font-family="Arial" fill="#475569">x=0 profile vs y. Y-axis bounds are fixed across all iteration frames.</text>
<rect x="105.0" y="78.0" width="405.0" height="260.0" fill="#ffffff" stroke="#cbd5e1" stroke-width="1"/>
<text x="105.0" y="67.0" font-size="16" font-weight="700" font-family="Arial" fill="#0f172a">Psi</text>
<line x1="206.2" y1="78.0" x2="206.2" y2="338.0" stroke="#e2e8f0" stroke-dasharray="4 4"/>
<line x1="105.0" y1="143.0" x2="510.0" y2="143.0" stroke="#e2e8f0" stroke-dasharray="4 4"/>
<line x1="307.5" y1="78.0" x2="307.5" y2="338.0" stroke="#e2e8f0" stroke-dasharray="4 4"/>
<line x1="105.0" y1="208.0" x2="510.0" y2="208.0" stroke="#e2e8f0" stroke-dasharray="4 4"/>
<line x1="408.8" y1="78.0" x2="408.8" y2="338.0" stroke="#e2e8f0" stroke-dasharray="4 4"/>
<line x1="105.0" y1="273.0" x2="510.0" y2="273.0" stroke="#e2e8f0" stroke-dasharray="4 4"/>
<line x1="105.0" y1="338.0" x2="510.0" y2="338.0" stroke="#475569" stroke-width="1"/>
<line x1="105.0" y1="78.0" x2="105.0" y2="338.0" stroke="#475569" stroke-width="1"/>
<line x1="100.0" y1="258.3" x2="105.0" y2="258.3" stroke="#475569" stroke-width="1"/>
<text x="96.0" y="262.3" text-anchor="end" font-size="10" font-family="Arial" fill="#334155">0.2</text>
<line x1="100.0" y1="177.7" x2="105.0" y2="177.7" stroke="#475569" stroke-width="1"/>
<text x="96.0" y="181.7" text-anchor="end" font-size="10" font-family="Arial" fill="#334155">0.4</text>
<line x1="100.0" y1="97.1" x2="105.0" y2="97.1" stroke="#475569" stroke-width="1"/>
<text x="96.0" y="101.1" text-anchor="end" font-size="10" font-family="Arial" fill="#334155">0.6</text>
<line x1="123.4" y1="338.0" x2="123.4" y2="343.0" stroke="#475569" stroke-width="1"/>
<text x="123.4" y="356.0" text-anchor="middle" font-size="10" font-family="Arial" fill="#334155">0</text>
<line x1="297.5" y1="338.0" x2="297.5" y2="343.0" stroke="#475569" stroke-width="1"/>
<text x="297.5" y="356.0" text-anchor="middle" font-size="10" font-family="Arial" fill="#334155">2.0e-04</text>
<line x1="471.6" y1="338.0" x2="471.6" y2="343.0" stroke="#475569" stroke-width="1"/>
<text x="471.6" y="356.0" text-anchor="middle" font-size="10" font-family="Arial" fill="#334155">4.0e-04</text>
<polyline points="123.41,101.86 140.82,101.70 179.67,101.56 210.75,101.39 235.60,101.25 255.48,101.08 271.38,100.95 284.06,132.41 293.14,132.00 300.10,131.06 309.18,130.58 321.86,129.84 336.76,130.49 352.70,129.39 369.73,128.05 380.61,127.10 391.49,126.05 408.03,124.26 424.57,122.22 441.11,119.81 457.65,116.80 474.18,112.88 491.59,106.31" fill="none" stroke="#ef4444" stroke-width="2.2" stroke-linejoin="round" stroke-linecap="round"/>
<text x="307.5" y="375.0" text-anchor="middle" font-size="11" font-family="Arial" fill="#ef4444">x=0 profile vs y</text>
<rect x="595.0" y="78.0" width="405.0" height="260.0" fill="#ffffff" stroke="#cbd5e1" stroke-width="1"/>
<text x="595.0" y="67.0" font-size="16" font-weight="700" font-family="Arial" fill="#0f172a">N</text>
<line x1="696.2" y1="78.0" x2="696.2" y2="338.0" stroke="#e2e8f0" stroke-dasharray="4 4"/>
<line x1="595.0" y1="143.0" x2="1000.0" y2="143.0" stroke="#e2e8f0" stroke-dasharray="4 4"/>
<line x1="797.5" y1="78.0" x2="797.5" y2="338.0" stroke="#e2e8f0" stroke-dasharray="4 4"/>
<line x1="595.0" y1="208.0" x2="1000.0" y2="208.0" stroke="#e2e8f0" stroke-dasharray="4 4"/>
<line x1="898.8" y1="78.0" x2="898.8" y2="338.0" stroke="#e2e8f0" stroke-dasharray="4 4"/>
<line x1="595.0" y1="273.0" x2="1000.0" y2="273.0" stroke="#e2e8f0" stroke-dasharray="4 4"/>
<line x1="595.0" y1="338.0" x2="1000.0" y2="338.0" stroke="#475569" stroke-width="1"/>
<line x1="595.0" y1="78.0" x2="595.0" y2="338.0" stroke="#475569" stroke-width="1"/>
<line x1="590.0" y1="287.5" x2="595.0" y2="287.5" stroke="#475569" stroke-width="1"/>
<text x="586.0" y="291.5" text-anchor="end" font-size="10" font-family="Arial" fill="#334155">5</text>
<line x1="590.0" y1="221.2" x2="595.0" y2="221.2" stroke="#475569" stroke-width="1"/>
<text x="586.0" y="225.2" text-anchor="end" font-size="10" font-family="Arial" fill="#334155">10</text>
<line x1="590.0" y1="154.9" x2="595.0" y2="154.9" stroke="#475569" stroke-width="1"/>
<text x="586.0" y="158.9" text-anchor="end" font-size="10" font-family="Arial" fill="#334155">15</text>
<line x1="590.0" y1="88.5" x2="595.0" y2="88.5" stroke="#475569" stroke-width="1"/>
<text x="586.0" y="92.5" text-anchor="end" font-size="10" font-family="Arial" fill="#334155">20</text>
<line x1="613.4" y1="338.0" x2="613.4" y2="343.0" stroke="#475569" stroke-width="1"/>
<text x="613.4" y="356.0" text-anchor="middle" font-size="10" font-family="Arial" fill="#334155">0</text>
<line x1="787.5" y1="338.0" x2="787.5" y2="343.0" stroke="#475569" stroke-width="1"/>
<text x="787.5" y="356.0" text-anchor="middle" font-size="10" font-family="Arial" fill="#334155">2.0e-04</text>
<line x1="961.6" y1="338.0" x2="961.6" y2="343.0" stroke="#475569" stroke-width="1"/>
<text x="961.6" y="356.0" text-anchor="middle" font-size="10" font-family="Arial" fill="#334155">4.0e-04</text>
<polyline points="613.41,89.83 630.82,89.83 669.67,89.83 700.75,89.82 725.60,89.82 745.48,89.82 761.38,89.82 774.06,107.48 783.14,107.68 790.10,108.09 799.18,108.25 811.86,108.48 826.76,109.69 842.70,110.16 859.73,110.73 870.61,111.14 881.49,111.60 898.03,112.40 914.57,113.37 931.11,114.63 947.65,116.44 964.18,119.60 981.59,326.18" fill="none" stroke="#ef4444" stroke-width="2.2" stroke-linejoin="round" stroke-linecap="round"/>
<text x="797.5" y="375.0" text-anchor="middle" font-size="11" font-family="Arial" fill="#ef4444">x=0 profile vs y</text>
<text x="994.0" y="93.0" text-anchor="end" font-size="10" font-family="Arial" fill="#64748b">log10</text>
<rect x="1085.0" y="78.0" width="405.0" height="260.0" fill="#ffffff" stroke="#cbd5e1" stroke-width="1"/>
<text x="1085.0" y="67.0" font-size="16" font-weight="700" font-family="Arial" fill="#0f172a">P</text>
<line x1="1186.2" y1="78.0" x2="1186.2" y2="338.0" stroke="#e2e8f0" stroke-dasharray="4 4"/>
<line x1="1085.0" y1="143.0" x2="1490.0" y2="143.0" stroke="#e2e8f0" stroke-dasharray="4 4"/>
<line x1="1287.5" y1="78.0" x2="1287.5" y2="338.0" stroke="#e2e8f0" stroke-dasharray="4 4"/>
<line x1="1085.0" y1="208.0" x2="1490.0" y2="208.0" stroke="#e2e8f0" stroke-dasharray="4 4"/>
<line x1="1388.8" y1="78.0" x2="1388.8" y2="338.0" stroke="#e2e8f0" stroke-dasharray="4 4"/>
<line x1="1085.0" y1="273.0" x2="1490.0" y2="273.0" stroke="#e2e8f0" stroke-dasharray="4 4"/>
<line x1="1085.0" y1="338.0" x2="1490.0" y2="338.0" stroke="#475569" stroke-width="1"/>
<line x1="1085.0" y1="78.0" x2="1085.0" y2="338.0" stroke="#475569" stroke-width="1"/>
<line x1="1080.0" y1="326.2" x2="1085.0" y2="326.2" stroke="#475569" stroke-width="1"/>
<text x="1076.0" y="330.2" text-anchor="end" font-size="10" font-family="Arial" fill="#334155">0</text>
<line x1="1080.0" y1="198.9" x2="1085.0" y2="198.9" stroke="#475569" stroke-width="1"/>
<text x="1076.0" y="202.9" text-anchor="end" font-size="10" font-family="Arial" fill="#334155">10</text>
<line x1="1080.0" y1="71.7" x2="1085.0" y2="71.7" stroke="#475569" stroke-width="1"/>
<text x="1076.0" y="75.7" text-anchor="end" font-size="10" font-family="Arial" fill="#334155">20</text>
<line x1="1103.4" y1="338.0" x2="1103.4" y2="343.0" stroke="#475569" stroke-width="1"/>
<text x="1103.4" y="356.0" text-anchor="middle" font-size="10" font-family="Arial" fill="#334155">0</text>
<line x1="1277.5" y1="338.0" x2="1277.5" y2="343.0" stroke="#475569" stroke-width="1"/>
<text x="1277.5" y="356.0" text-anchor="middle" font-size="10" font-family="Arial" fill="#334155">2.0e-04</text>
<line x1="1451.6" y1="338.0" x2="1451.6" y2="343.0" stroke="#475569" stroke-width="1"/>
<text x="1451.6" y="356.0" text-anchor="middle" font-size="10" font-family="Arial" fill="#334155">4.0e-04</text>
<polyline points="1103.41,324.36 1120.82,118.72 1159.67,112.22 1190.75,109.75 1215.60,108.32 1235.48,107.37 1251.38,106.69 1264.06,89.86 1273.14,90.05 1280.10,90.44 1289.18,90.59 1301.86,90.81 1316.76,90.27 1332.70,90.60 1349.73,90.99 1360.61,91.26 1371.49,91.55 1388.03,92.05 1404.57,92.62 1421.11,93.30 1437.65,94.18 1454.18,95.37 1471.59,97.60" fill="none" stroke="#ef4444" stroke-width="2.2" stroke-linejoin="round" stroke-linecap="round"/>
<text x="1287.5" y="375.0" text-anchor="middle" font-size="11" font-family="Arial" fill="#ef4444">x=0 profile vs y</text>
<text x="1484.0" y="93.0" text-anchor="end" font-size="10" font-family="Arial" fill="#64748b">log10</text>
<rect x="105.0" y="422.0" width="405.0" height="260.0" fill="#ffffff" stroke="#cbd5e1" stroke-width="1"/>
<text x="105.0" y="411.0" font-size="16" font-weight="700" font-family="Arial" fill="#0f172a">R_sp</text>
<line x1="206.2" y1="422.0" x2="206.2" y2="682.0" stroke="#e2e8f0" stroke-dasharray="4 4"/>
<line x1="105.0" y1="487.0" x2="510.0" y2="487.0" stroke="#e2e8f0" stroke-dasharray="4 4"/>
<line x1="307.5" y1="422.0" x2="307.5" y2="682.0" stroke="#e2e8f0" stroke-dasharray="4 4"/>
<line x1="105.0" y1="552.0" x2="510.0" y2="552.0" stroke="#e2e8f0" stroke-dasharray="4 4"/>
<line x1="408.8" y1="422.0" x2="408.8" y2="682.0" stroke="#e2e8f0" stroke-dasharray="4 4"/>
<line x1="105.0" y1="617.0" x2="510.0" y2="617.0" stroke="#e2e8f0" stroke-dasharray="4 4"/>
<line x1="105.0" y1="682.0" x2="510.0" y2="682.0" stroke="#475569" stroke-width="1"/>
<line x1="105.0" y1="422.0" x2="105.0" y2="682.0" stroke="#475569" stroke-width="1"/>
<line x1="100.0" y1="670.2" x2="105.0" y2="670.2" stroke="#475569" stroke-width="1"/>
<text x="96.0" y="674.2" text-anchor="end" font-size="10" font-family="Arial" fill="#334155">0</text>
<line x1="100.0" y1="583.0" x2="105.0" y2="583.0" stroke="#475569" stroke-width="1"/>
<text x="96.0" y="587.0" text-anchor="end" font-size="10" font-family="Arial" fill="#334155">10</text>
<line x1="100.0" y1="495.9" x2="105.0" y2="495.9" stroke="#475569" stroke-width="1"/>
<text x="96.0" y="499.9" text-anchor="end" font-size="10" font-family="Arial" fill="#334155">20</text>
<line x1="100.0" y1="408.7" x2="105.0" y2="408.7" stroke="#475569" stroke-width="1"/>
<text x="96.0" y="412.7" text-anchor="end" font-size="10" font-family="Arial" fill="#334155">30</text>
<line x1="123.4" y1="682.0" x2="123.4" y2="687.0" stroke="#475569" stroke-width="1"/>
<text x="123.4" y="700.0" text-anchor="middle" font-size="10" font-family="Arial" fill="#334155">0</text>
<line x1="297.5" y1="682.0" x2="297.5" y2="687.0" stroke="#475569" stroke-width="1"/>
<text x="297.5" y="700.0" text-anchor="middle" font-size="10" font-family="Arial" fill="#334155">2.0e-04</text>
<line x1="471.6" y1="682.0" x2="471.6" y2="687.0" stroke="#475569" stroke-width="1"/>
<text x="471.6" y="700.0" text-anchor="middle" font-size="10" font-family="Arial" fill="#334155">4.0e-04</text>
<polyline points="123.41,670.18 140.82,670.18 179.67,670.18 210.75,670.18 235.60,670.18 255.48,670.18 271.38,670.18 284.06,670.18 293.14,433.88 300.10,434.42 309.18,670.18 321.86,670.18 336.76,670.18 352.70,670.18 369.73,670.18 380.61,670.18 391.49,670.18 408.03,670.18 424.57,670.18 441.11,670.18 457.65,670.18 474.18,670.18 491.59,670.18" fill="none" stroke="#ef4444" stroke-width="2.2" stroke-linejoin="round" stroke-linecap="round"/>
<text x="307.5" y="719.0" text-anchor="middle" font-size="11" font-family="Arial" fill="#ef4444">x=0 profile vs y</text>
<text x="504.0" y="437.0" text-anchor="end" font-size="10" font-family="Arial" fill="#64748b">log10</text>
<rect x="595.0" y="422.0" width="405.0" height="260.0" fill="#ffffff" stroke="#cbd5e1" stroke-width="1"/>
<text x="595.0" y="411.0" font-size="16" font-weight="700" font-family="Arial" fill="#0f172a">R_stim</text>
<line x1="696.2" y1="422.0" x2="696.2" y2="682.0" stroke="#e2e8f0" stroke-dasharray="4 4"/>
<line x1="595.0" y1="487.0" x2="1000.0" y2="487.0" stroke="#e2e8f0" stroke-dasharray="4 4"/>
<line x1="797.5" y1="422.0" x2="797.5" y2="682.0" stroke="#e2e8f0" stroke-dasharray="4 4"/>
<line x1="595.0" y1="552.0" x2="1000.0" y2="552.0" stroke="#e2e8f0" stroke-dasharray="4 4"/>
<line x1="898.8" y1="422.0" x2="898.8" y2="682.0" stroke="#e2e8f0" stroke-dasharray="4 4"/>
<line x1="595.0" y1="617.0" x2="1000.0" y2="617.0" stroke="#e2e8f0" stroke-dasharray="4 4"/>
<line x1="595.0" y1="682.0" x2="1000.0" y2="682.0" stroke="#475569" stroke-width="1"/>
<line x1="595.0" y1="422.0" x2="595.0" y2="682.0" stroke="#475569" stroke-width="1"/>
<line x1="590.0" y1="670.2" x2="595.0" y2="670.2" stroke="#475569" stroke-width="1"/>
<text x="586.0" y="674.2" text-anchor="end" font-size="10" font-family="Arial" fill="#334155">0</text>
<line x1="590.0" y1="602.5" x2="595.0" y2="602.5" stroke="#475569" stroke-width="1"/>
<text x="586.0" y="606.5" text-anchor="end" font-size="10" font-family="Arial" fill="#334155">5</text>
<line x1="590.0" y1="534.7" x2="595.0" y2="534.7" stroke="#475569" stroke-width="1"/>
<text x="586.0" y="538.7" text-anchor="end" font-size="10" font-family="Arial" fill="#334155">10</text>
<line x1="590.0" y1="467.0" x2="595.0" y2="467.0" stroke="#475569" stroke-width="1"/>
<text x="586.0" y="471.0" text-anchor="end" font-size="10" font-family="Arial" fill="#334155">15</text>
<line x1="590.0" y1="399.3" x2="595.0" y2="399.3" stroke="#475569" stroke-width="1"/>
<text x="586.0" y="403.3" text-anchor="end" font-size="10" font-family="Arial" fill="#334155">20</text>
<line x1="613.4" y1="682.0" x2="613.4" y2="687.0" stroke="#475569" stroke-width="1"/>
<text x="613.4" y="700.0" text-anchor="middle" font-size="10" font-family="Arial" fill="#334155">0</text>
<line x1="787.5" y1="682.0" x2="787.5" y2="687.0" stroke="#475569" stroke-width="1"/>
<text x="787.5" y="700.0" text-anchor="middle" font-size="10" font-family="Arial" fill="#334155">2.0e-04</text>
<line x1="961.6" y1="682.0" x2="961.6" y2="687.0" stroke="#475569" stroke-width="1"/>
<text x="961.6" y="700.0" text-anchor="middle" font-size="10" font-family="Arial" fill="#334155">4.0e-04</text>
<polyline points="613.41,670.18 630.82,670.18 669.67,670.18 700.75,670.18 725.60,670.18 745.48,670.18 761.38,670.18 774.06,670.18 783.14,433.96 790.10,434.80 799.18,670.18 811.86,670.18 826.76,670.18 842.70,670.18 859.73,670.18 870.61,670.18 881.49,670.18 898.03,670.18 914.57,670.18 931.11,670.18 947.65,670.18 964.18,670.18 981.59,670.18" fill="none" stroke="#ef4444" stroke-width="2.2" stroke-linejoin="round" stroke-linecap="round"/>
<text x="797.5" y="719.0" text-anchor="middle" font-size="11" font-family="Arial" fill="#ef4444">x=0 profile vs y</text>
<text x="994.0" y="437.0" text-anchor="end" font-size="10" font-family="Arial" fill="#64748b">log10</text>
<rect x="1085.0" y="422.0" width="405.0" height="260.0" fill="#ffffff" stroke="#cbd5e1" stroke-width="1"/>
<text x="1085.0" y="411.0" font-size="16" font-weight="700" font-family="Arial" fill="#0f172a">R_SRH</text>
<line x1="1186.2" y1="422.0" x2="1186.2" y2="682.0" stroke="#e2e8f0" stroke-dasharray="4 4"/>
<line x1="1085.0" y1="487.0" x2="1490.0" y2="487.0" stroke="#e2e8f0" stroke-dasharray="4 4"/>
<line x1="1287.5" y1="422.0" x2="1287.5" y2="682.0" stroke="#e2e8f0" stroke-dasharray="4 4"/>
<line x1="1085.0" y1="552.0" x2="1490.0" y2="552.0" stroke="#e2e8f0" stroke-dasharray="4 4"/>
<line x1="1388.8" y1="422.0" x2="1388.8" y2="682.0" stroke="#e2e8f0" stroke-dasharray="4 4"/>
<line x1="1085.0" y1="617.0" x2="1490.0" y2="617.0" stroke="#e2e8f0" stroke-dasharray="4 4"/>
<line x1="1085.0" y1="682.0" x2="1490.0" y2="682.0" stroke="#475569" stroke-width="1"/>
<line x1="1085.0" y1="422.0" x2="1085.0" y2="682.0" stroke="#475569" stroke-width="1"/>
<line x1="1080.0" y1="670.2" x2="1085.0" y2="670.2" stroke="#475569" stroke-width="1"/>
<text x="1076.0" y="674.2" text-anchor="end" font-size="10" font-family="Arial" fill="#334155">0</text>
<line x1="1080.0" y1="580.2" x2="1085.0" y2="580.2" stroke="#475569" stroke-width="1"/>
<text x="1076.0" y="584.2" text-anchor="end" font-size="10" font-family="Arial" fill="#334155">10</text>
<line x1="1080.0" y1="490.1" x2="1085.0" y2="490.1" stroke="#475569" stroke-width="1"/>
<text x="1076.0" y="494.1" text-anchor="end" font-size="10" font-family="Arial" fill="#334155">20</text>
<line x1="1080.0" y1="400.1" x2="1085.0" y2="400.1" stroke="#475569" stroke-width="1"/>
<text x="1076.0" y="404.1" text-anchor="end" font-size="10" font-family="Arial" fill="#334155">30</text>
<line x1="1103.4" y1="682.0" x2="1103.4" y2="687.0" stroke="#475569" stroke-width="1"/>
<text x="1103.4" y="700.0" text-anchor="middle" font-size="10" font-family="Arial" fill="#334155">0</text>
<line x1="1277.5" y1="682.0" x2="1277.5" y2="687.0" stroke="#475569" stroke-width="1"/>
<text x="1277.5" y="700.0" text-anchor="middle" font-size="10" font-family="Arial" fill="#334155">2.0e-04</text>
<line x1="1451.6" y1="682.0" x2="1451.6" y2="687.0" stroke="#475569" stroke-width="1"/>
<text x="1451.6" y="700.0" text-anchor="middle" font-size="10" font-family="Arial" fill="#334155">4.0e-04</text>
<polyline points="1103.41,670.18 1120.82,670.18 1159.67,670.18 1190.75,670.18 1215.60,670.18 1235.48,670.18 1251.38,670.18 1264.06,670.18 1273.14,433.85 1280.10,434.13 1289.18,670.18 1301.86,670.18 1316.76,670.18 1332.70,670.18 1349.73,670.18 1360.61,670.18 1371.49,670.18 1388.03,670.18 1404.57,670.18 1421.11,670.18 1437.65,670.18 1454.18,670.18 1471.59,670.18" fill="none" stroke="#ef4444" stroke-width="2.2" stroke-linejoin="round" stroke-linecap="round"/>
<text x="1287.5" y="719.0" text-anchor="middle" font-size="11" font-family="Arial" fill="#ef4444">x=0 profile vs y</text>
<text x="1484.0" y="437.0" text-anchor="end" font-size="10" font-family="Arial" fill="#64748b">log10</text>
<rect x="105.0" y="766.0" width="405.0" height="260.0" fill="#ffffff" stroke="#cbd5e1" stroke-width="1"/>
<text x="105.0" y="755.0" font-size="16" font-weight="700" font-family="Arial" fill="#0f172a">T</text>
<line x1="206.2" y1="766.0" x2="206.2" y2="1026.0" stroke="#e2e8f0" stroke-dasharray="4 4"/>
<line x1="105.0" y1="831.0" x2="510.0" y2="831.0" stroke="#e2e8f0" stroke-dasharray="4 4"/>
<line x1="307.5" y1="766.0" x2="307.5" y2="1026.0" stroke="#e2e8f0" stroke-dasharray="4 4"/>
<line x1="105.0" y1="896.0" x2="510.0" y2="896.0" stroke="#e2e8f0" stroke-dasharray="4 4"/>
<line x1="408.8" y1="766.0" x2="408.8" y2="1026.0" stroke="#e2e8f0" stroke-dasharray="4 4"/>
<line x1="105.0" y1="961.0" x2="510.0" y2="961.0" stroke="#e2e8f0" stroke-dasharray="4 4"/>
<line x1="105.0" y1="1026.0" x2="510.0" y2="1026.0" stroke="#475569" stroke-width="1"/>
<line x1="105.0" y1="766.0" x2="105.0" y2="1026.0" stroke="#475569" stroke-width="1"/>
<line x1="100.0" y1="1014.2" x2="105.0" y2="1014.2" stroke="#475569" stroke-width="1"/>
<text x="96.0" y="1018.2" text-anchor="end" font-size="10" font-family="Arial" fill="#334155">300</text>
<line x1="100.0" y1="892.3" x2="105.0" y2="892.3" stroke="#475569" stroke-width="1"/>
<text x="96.0" y="896.3" text-anchor="end" font-size="10" font-family="Arial" fill="#334155">300.5</text>
<line x1="100.0" y1="770.4" x2="105.0" y2="770.4" stroke="#475569" stroke-width="1"/>
<text x="96.0" y="774.4" text-anchor="end" font-size="10" font-family="Arial" fill="#334155">301</text>
<line x1="123.4" y1="1026.0" x2="123.4" y2="1031.0" stroke="#475569" stroke-width="1"/>
<text x="123.4" y="1044.0" text-anchor="middle" font-size="10" font-family="Arial" fill="#334155">0</text>
<line x1="297.5" y1="1026.0" x2="297.5" y2="1031.0" stroke="#475569" stroke-width="1"/>
<text x="297.5" y="1044.0" text-anchor="middle" font-size="10" font-family="Arial" fill="#334155">2.0e-04</text>
<line x1="471.6" y1="1026.0" x2="471.6" y2="1031.0" stroke="#475569" stroke-width="1"/>
<text x="471.6" y="1044.0" text-anchor="middle" font-size="10" font-family="Arial" fill="#334155">4.0e-04</text>
<polyline points="123.41,931.48 140.82,919.29 179.67,891.87 210.75,869.64 235.60,851.63 255.48,837.06 271.38,825.26 284.06,815.77 293.14,808.90 300.10,782.27 309.18,785.76 321.86,790.68 336.76,796.56 352.70,803.02 369.73,810.13 380.61,814.81 391.49,819.57 408.03,827.01 424.57,834.64 441.11,842.45 457.65,850.40 474.18,858.47 491.59,867.08" fill="none" stroke="#ef4444" stroke-width="2.2" stroke-linejoin="round" stroke-linecap="round"/>
<text x="307.5" y="1063.0" text-anchor="middle" font-size="11" font-family="Arial" fill="#ef4444">x=0 profile vs y</text>
<rect x="595.0" y="766.0" width="405.0" height="260.0" fill="#ffffff" stroke="#cbd5e1" stroke-width="1"/>
<text x="595.0" y="755.0" font-size="16" font-weight="700" font-family="Arial" fill="#0f172a">Pho</text>
<line x1="696.2" y1="766.0" x2="696.2" y2="1026.0" stroke="#e2e8f0" stroke-dasharray="4 4"/>
<line x1="595.0" y1="831.0" x2="1000.0" y2="831.0" stroke="#e2e8f0" stroke-dasharray="4 4"/>
<line x1="797.5" y1="766.0" x2="797.5" y2="1026.0" stroke="#e2e8f0" stroke-dasharray="4 4"/>
<line x1="595.0" y1="896.0" x2="1000.0" y2="896.0" stroke="#e2e8f0" stroke-dasharray="4 4"/>
<line x1="898.8" y1="766.0" x2="898.8" y2="1026.0" stroke="#e2e8f0" stroke-dasharray="4 4"/>
<line x1="595.0" y1="961.0" x2="1000.0" y2="961.0" stroke="#e2e8f0" stroke-dasharray="4 4"/>
<line x1="595.0" y1="1026.0" x2="1000.0" y2="1026.0" stroke="#475569" stroke-width="1"/>
<line x1="595.0" y1="766.0" x2="595.0" y2="1026.0" stroke="#475569" stroke-width="1"/>
<line x1="590.0" y1="1014.2" x2="595.0" y2="1014.2" stroke="#475569" stroke-width="1"/>
<text x="586.0" y="1018.2" text-anchor="end" font-size="10" font-family="Arial" fill="#334155">0</text>
<line x1="590.0" y1="908.6" x2="595.0" y2="908.6" stroke="#475569" stroke-width="1"/>
<text x="586.0" y="912.6" text-anchor="end" font-size="10" font-family="Arial" fill="#334155">5</text>
<line x1="590.0" y1="803.0" x2="595.0" y2="803.0" stroke="#475569" stroke-width="1"/>
<text x="586.0" y="807.0" text-anchor="end" font-size="10" font-family="Arial" fill="#334155">10</text>
<line x1="613.4" y1="1026.0" x2="613.4" y2="1031.0" stroke="#475569" stroke-width="1"/>
<text x="613.4" y="1044.0" text-anchor="middle" font-size="10" font-family="Arial" fill="#334155">0</text>
<line x1="787.5" y1="1026.0" x2="787.5" y2="1031.0" stroke="#475569" stroke-width="1"/>
<text x="787.5" y="1044.0" text-anchor="middle" font-size="10" font-family="Arial" fill="#334155">2.0e-04</text>
<line x1="961.6" y1="1026.0" x2="961.6" y2="1031.0" stroke="#475569" stroke-width="1"/>
<text x="961.6" y="1044.0" text-anchor="middle" font-size="10" font-family="Arial" fill="#334155">4.0e-04</text>
<polyline points="613.41,1014.18 630.82,1014.18 669.67,1014.18 700.75,1014.18 725.60,1014.18 745.48,1014.18 761.38,1001.50 774.06,885.93 783.14,777.96 790.10,778.62 799.18,886.59 811.86,1002.00 826.76,1014.18 842.70,1014.18 859.73,1014.18 870.61,1014.18 881.49,1014.18 898.03,1014.18 914.57,1014.18 931.11,1014.18 947.65,1014.18 964.18,1014.18 981.59,1014.18" fill="none" stroke="#ef4444" stroke-width="2.2" stroke-linejoin="round" stroke-linecap="round"/>
<text x="797.5" y="1063.0" text-anchor="middle" font-size="11" font-family="Arial" fill="#ef4444">x=0 profile vs y</text>
<text x="994.0" y="781.0" text-anchor="end" font-size="10" font-family="Arial" fill="#64748b">log10</text>
<rect x="1085.0" y="766.0" width="405.0" height="260.0" fill="#ffffff" stroke="#cbd5e1" stroke-width="1"/>
<text x="1085.0" y="755.0" font-size="16" font-weight="700" font-family="Arial" fill="#0f172a">R_Auger</text>
<line x1="1186.2" y1="766.0" x2="1186.2" y2="1026.0" stroke="#e2e8f0" stroke-dasharray="4 4"/>
<line x1="1085.0" y1="831.0" x2="1490.0" y2="831.0" stroke="#e2e8f0" stroke-dasharray="4 4"/>
<line x1="1287.5" y1="766.0" x2="1287.5" y2="1026.0" stroke="#e2e8f0" stroke-dasharray="4 4"/>
<line x1="1085.0" y1="896.0" x2="1490.0" y2="896.0" stroke="#e2e8f0" stroke-dasharray="4 4"/>
<line x1="1388.8" y1="766.0" x2="1388.8" y2="1026.0" stroke="#e2e8f0" stroke-dasharray="4 4"/>
<line x1="1085.0" y1="961.0" x2="1490.0" y2="961.0" stroke="#e2e8f0" stroke-dasharray="4 4"/>
<line x1="1085.0" y1="1026.0" x2="1490.0" y2="1026.0" stroke="#475569" stroke-width="1"/>
<line x1="1085.0" y1="766.0" x2="1085.0" y2="1026.0" stroke="#475569" stroke-width="1"/>
<line x1="1080.0" y1="1014.2" x2="1085.0" y2="1014.2" stroke="#475569" stroke-width="1"/>
<text x="1076.0" y="1018.2" text-anchor="end" font-size="10" font-family="Arial" fill="#334155">0</text>
<line x1="1080.0" y1="928.1" x2="1085.0" y2="928.1" stroke="#475569" stroke-width="1"/>
<text x="1076.0" y="932.1" text-anchor="end" font-size="10" font-family="Arial" fill="#334155">10</text>
<line x1="1080.0" y1="842.0" x2="1085.0" y2="842.0" stroke="#475569" stroke-width="1"/>
<text x="1076.0" y="846.0" text-anchor="end" font-size="10" font-family="Arial" fill="#334155">20</text>
<line x1="1080.0" y1="756.0" x2="1085.0" y2="756.0" stroke="#475569" stroke-width="1"/>
<text x="1076.0" y="760.0" text-anchor="end" font-size="10" font-family="Arial" fill="#334155">30</text>
<line x1="1103.4" y1="1026.0" x2="1103.4" y2="1031.0" stroke="#475569" stroke-width="1"/>
<text x="1103.4" y="1044.0" text-anchor="middle" font-size="10" font-family="Arial" fill="#334155">0</text>
<line x1="1277.5" y1="1026.0" x2="1277.5" y2="1031.0" stroke="#475569" stroke-width="1"/>
<text x="1277.5" y="1044.0" text-anchor="middle" font-size="10" font-family="Arial" fill="#334155">2.0e-04</text>
<line x1="1451.6" y1="1026.0" x2="1451.6" y2="1031.0" stroke="#475569" stroke-width="1"/>
<text x="1451.6" y="1044.0" text-anchor="middle" font-size="10" font-family="Arial" fill="#334155">4.0e-04</text>
<polyline points="1103.41,1014.18 1120.82,1014.18 1159.67,1014.18 1190.75,1014.18 1215.60,1014.18 1235.48,1014.18 1251.38,1014.18 1264.06,1014.18 1273.14,777.91 1280.10,778.71 1289.18,1014.18 1301.86,1014.18 1316.76,1014.18 1332.70,1014.18 1349.73,1014.18 1360.61,1014.18 1371.49,1014.18 1388.03,1014.18 1404.57,1014.18 1421.11,1014.18 1437.65,1014.18 1454.18,1014.18 1471.59,1014.18" fill="none" stroke="#ef4444" stroke-width="2.2" stroke-linejoin="round" stroke-linecap="round"/>
<text x="1287.5" y="1063.0" text-anchor="middle" font-size="11" font-family="Arial" fill="#ef4444">x=0 profile vs y</text>
<text x="1484.0" y="781.0" text-anchor="end" font-size="10" font-family="Arial" fill="#64748b">log10</text>
</svg>
