<svg xmlns="http://www.w3.org/2000/svg" width="1580" height="1120" viewBox="0 0 1580 1120">
<rect width="1580" height="1120" fill="#ffffff"/>
<text x="54" y="34" font-size="22" font-weight="700" font-family="Arial" fill="#0f172a">laser_coupled 1D horizontal profiles: t0015</text>
<text x="54" y="56" font-size="13" font-family="Arial" fill="#475569">y=0.000199 cm profile vs x. Y-axis bounds are fixed across all iteration frames.</text>
<rect x="105.0" y="78.0" width="405.0" height="260.0" fill="#ffffff" stroke="#cbd5e1" stroke-width="1"/>
<text x="105.0" y="67.0" font-size="16" font-weight="700" font-family="Arial" fill="#0f172a">Psi</text>
<line x1="206.2" y1="78.0" x2="206.2" y2="338.0" stroke="#e2e8f0" stroke-dasharray="4 4"/>
<line x1="105.0" y1="143.0" x2="510.0" y2="143.0" stroke="#e2e8f0" stroke-dasharray="4 4"/>
<line x1="307.5" y1="78.0" x2="307.5" y2="338.0" stroke="#e2e8f0" stroke-dasharray="4 4"/>
<line x1="105.0" y1="208.0" x2="510.0" y2="208.0" stroke="#e2e8f0" stroke-dasharray="4 4"/>
<line x1="408.8" y1="78.0" x2="408.8" y2="338.0" stroke="#e2e8f0" stroke-dasharray="4 4"/>
<line x1="105.0" y1="273.0" x2="510.0" y2="273.0" stroke="#e2e8f0" stroke-dasharray="4 4"/>
<line x1="105.0" y1="338.0" x2="510.0" y2="338.0" stroke="#475569" stroke-width="1"/>
<line x1="105.0" y1="78.0" x2="105.0" y2="338.0" stroke="#475569" stroke-width="1"/>
<line x1="100.0" y1="332.1" x2="105.0" y2="332.1" stroke="#475569" stroke-width="1"/>
<text x="96.0" y="336.1" text-anchor="end" font-size="10" font-family="Arial" fill="#334155">0.2</text>
<line x1="100.0" y1="256.2" x2="105.0" y2="256.2" stroke="#475569" stroke-width="1"/>
<text x="96.0" y="260.2" text-anchor="end" font-size="10" font-family="Arial" fill="#334155">0.3</text>
<line x1="100.0" y1="180.3" x2="105.0" y2="180.3" stroke="#475569" stroke-width="1"/>
<text x="96.0" y="184.3" text-anchor="end" font-size="10" font-family="Arial" fill="#334155">0.4</text>
<line x1="100.0" y1="104.3" x2="105.0" y2="104.3" stroke="#475569" stroke-width="1"/>
<text x="96.0" y="108.3" text-anchor="end" font-size="10" font-family="Arial" fill="#334155">0.5</text>
<line x1="152.9" y1="338.0" x2="152.9" y2="343.0" stroke="#475569" stroke-width="1"/>
<text x="152.9" y="356.0" text-anchor="middle" font-size="10" font-family="Arial" fill="#334155">-5.0e-04</text>
<line x1="307.5" y1="338.0" x2="307.5" y2="343.0" stroke="#475569" stroke-width="1"/>
<text x="307.5" y="356.0" text-anchor="middle" font-size="10" font-family="Arial" fill="#334155">0</text>
<line x1="462.1" y1="338.0" x2="462.1" y2="343.0" stroke="#475569" stroke-width="1"/>
<text x="462.1" y="356.0" text-anchor="middle" font-size="10" font-family="Arial" fill="#334155">5.0e-04</text>
<polyline points="123.41,104.28 126.19,104.47 128.97,104.24 131.76,104.37 134.54,104.16 137.32,104.03 140.10,103.87 142.88,103.67 145.67,103.51 148.45,103.74 151.23,103.77 154.01,103.68 156.80,103.73 159.58,103.37 162.36,103.37 165.14,103.39 167.92,103.12 170.71,102.96 173.49,102.75 176.27,102.59 179.05,102.31 181.84,102.44 184.62,101.88 187.40,101.85 190.18,101.82 192.96,101.70 195.75,101.44 198.53,101.36 201.31,101.35 204.09,101.11 206.88,100.90 209.66,100.69 212.44,100.62 215.22,100.25 218.00,99.82 220.79,99.70 223.57,99.38 226.35,99.08 229.13,98.95 231.92,98.77 234.70,98.50 237.48,98.22 240.26,97.95 243.04,97.68 245.83,97.40 248.61,97.10 251.39,96.82 254.17,96.54 256.96,96.26 259.74,95.98 262.49,95.70 265.22,95.43 267.95,95.18 270.68,94.92 273.40,94.69 276.13,94.46 278.86,94.25 281.59,94.05 284.31,93.85 287.04,93.70 289.77,93.57 292.50,93.47 295.23,93.39 297.95,93.32 300.68,93.26 303.41,93.23 306.14,93.24 308.86,93.24 311.59,93.23 314.32,93.26 317.05,93.32 319.77,93.39 322.50,93.47 325.23,93.57 327.96,93.70 330.69,93.85 333.41,94.05 336.14,94.25 338.87,94.46 341.60,94.69 344.32,94.92 347.05,95.18 349.78,95.43 352.51,95.70 355.26,95.98 358.04,96.26 360.83,96.54 363.61,96.82 366.39,97.10 369.17,97.40 371.96,97.68 374.74,97.95 377.52,98.22 380.30,98.50 383.08,98.77 385.87,98.95 388.65,99.08 391.43,99.38 394.21,99.70 397.00,99.82 399.78,100.25 402.56,100.62 405.34,100.69 408.12,100.90 410.91,101.11 413.69,101.35 416.47,101.36 419.25,101.44 422.04,101.70 424.82,101.82 427.60,101.85 430.38,101.88 433.16,102.44 435.95,102.31 438.73,102.59 441.51,102.75 444.29,102.96 447.08,103.12 449.86,103.39 452.64,103.37 455.42,103.37 458.20,103.73 460.99,103.68 463.77,103.77 466.55,103.74 469.33,103.51 472.12,103.67 474.90,103.87 477.68,104.03 480.46,104.16 483.24,104.37 486.03,104.24 488.81,104.47 491.59,104.28" fill="none" stroke="#3b82f6" stroke-width="2.2" stroke-linejoin="round" stroke-linecap="round"/>
<text x="307.5" y="375.0" text-anchor="middle" font-size="11" font-family="Arial" fill="#3b82f6">y=0.000199 cm profile vs x</text>
<rect x="595.0" y="78.0" width="405.0" height="260.0" fill="#ffffff" stroke="#cbd5e1" stroke-width="1"/>
<text x="595.0" y="67.0" font-size="16" font-weight="700" font-family="Arial" fill="#0f172a">N</text>
<line x1="696.2" y1="78.0" x2="696.2" y2="338.0" stroke="#e2e8f0" stroke-dasharray="4 4"/>
<line x1="595.0" y1="143.0" x2="1000.0" y2="143.0" stroke="#e2e8f0" stroke-dasharray="4 4"/>
<line x1="797.5" y1="78.0" x2="797.5" y2="338.0" stroke="#e2e8f0" stroke-dasharray="4 4"/>
<line x1="595.0" y1="208.0" x2="1000.0" y2="208.0" stroke="#e2e8f0" stroke-dasharray="4 4"/>
<line x1="898.8" y1="78.0" x2="898.8" y2="338.0" stroke="#e2e8f0" stroke-dasharray="4 4"/>
<line x1="595.0" y1="273.0" x2="1000.0" y2="273.0" stroke="#e2e8f0" stroke-dasharray="4 4"/>
<line x1="595.0" y1="338.0" x2="1000.0" y2="338.0" stroke="#475569" stroke-width="1"/>
<line x1="595.0" y1="78.0" x2="595.0" y2="338.0" stroke="#475569" stroke-width="1"/>
<line x1="590.0" y1="269.8" x2="595.0" y2="269.8" stroke="#475569" stroke-width="1"/>
<text x="586.0" y="273.8" text-anchor="end" font-size="10" font-family="Arial" fill="#334155">16</text>
<line x1="590.0" y1="199.1" x2="595.0" y2="199.1" stroke="#475569" stroke-width="1"/>
<text x="586.0" y="203.1" text-anchor="end" font-size="10" font-family="Arial" fill="#334155">17</text>
<line x1="590.0" y1="128.3" x2="595.0" y2="128.3" stroke="#475569" stroke-width="1"/>
<text x="586.0" y="132.3" text-anchor="end" font-size="10" font-family="Arial" fill="#334155">18</text>
<line x1="590.0" y1="57.6" x2="595.0" y2="57.6" stroke="#475569" stroke-width="1"/>
<text x="586.0" y="61.6" text-anchor="end" font-size="10" font-family="Arial" fill="#334155">19</text>
<line x1="642.9" y1="338.0" x2="642.9" y2="343.0" stroke="#475569" stroke-width="1"/>
<text x="642.9" y="356.0" text-anchor="middle" font-size="10" font-family="Arial" fill="#334155">-5.0e-04</text>
<line x1="797.5" y1="338.0" x2="797.5" y2="343.0" stroke="#475569" stroke-width="1"/>
<text x="797.5" y="356.0" text-anchor="middle" font-size="10" font-family="Arial" fill="#334155">0</text>
<line x1="952.1" y1="338.0" x2="952.1" y2="343.0" stroke="#475569" stroke-width="1"/>
<text x="952.1" y="356.0" text-anchor="middle" font-size="10" font-family="Arial" fill="#334155">5.0e-04</text>
<polyline points="613.41,99.45 616.19,99.39 618.97,99.30 621.76,99.19 624.54,99.09 627.32,99.00 630.10,98.90 632.88,98.81 635.67,98.71 638.45,98.61 641.23,98.50 644.01,98.40 646.80,98.29 649.58,98.19 652.36,98.07 655.14,97.95 657.92,97.82 660.71,97.69 663.49,97.55 666.27,97.41 669.05,97.26 671.84,97.09 674.62,96.91 677.40,96.72 680.18,96.53 682.96,96.34 685.75,96.15 688.53,95.96 691.31,95.76 694.09,95.56 696.88,95.34 699.66,95.12 702.44,94.90 705.22,94.68 708.00,94.45 710.79,94.23 713.57,94.00 716.35,93.78 719.13,93.56 721.92,93.35 724.70,93.13 727.48,92.92 730.26,92.72 733.04,92.52 735.83,92.33 738.61,92.15 741.39,91.98 744.17,91.81 746.96,91.65 749.74,91.49 752.49,91.33 755.22,91.19 757.95,91.06 760.68,90.95 763.40,90.84 766.13,90.73 768.86,90.63 771.59,90.53 774.31,90.44 777.04,90.37 779.77,90.31 782.50,90.26 785.23,90.22 787.95,90.18 790.68,90.14 793.41,90.09 796.14,90.07 798.86,90.07 801.59,90.09 804.32,90.14 807.05,90.18 809.77,90.22 812.50,90.26 815.23,90.31 817.96,90.37 820.69,90.44 823.41,90.53 826.14,90.63 828.87,90.73 831.60,90.84 834.32,90.95 837.05,91.06 839.78,91.19 842.51,91.33 845.26,91.49 848.04,91.65 850.83,91.81 853.61,91.98 856.39,92.15 859.17,92.33 861.96,92.52 864.74,92.72 867.52,92.92 870.30,93.13 873.08,93.35 875.87,93.56 878.65,93.78 881.43,94.00 884.21,94.23 887.00,94.45 889.78,94.68 892.56,94.90 895.34,95.12 898.12,95.34 900.91,95.56 903.69,95.76 906.47,95.96 909.25,96.15 912.04,96.34 914.82,96.53 917.60,96.72 920.38,96.91 923.16,97.09 925.95,97.26 928.73,97.41 931.51,97.55 934.29,97.69 937.08,97.82 939.86,97.95 942.64,98.07 945.42,98.19 948.20,98.29 950.99,98.40 953.77,98.50 956.55,98.61 959.33,98.71 962.12,98.81 964.90,98.90 967.68,99.00 970.46,99.09 973.24,99.19 976.03,99.30 978.81,99.39 981.59,99.45" fill="none" stroke="#3b82f6" stroke-width="2.2" stroke-linejoin="round" stroke-linecap="round"/>
<text x="797.5" y="375.0" text-anchor="middle" font-size="11" font-family="Arial" fill="#3b82f6">y=0.000199 cm profile vs x</text>
<text x="994.0" y="93.0" text-anchor="end" font-size="10" font-family="Arial" fill="#64748b">log10</text>
<rect x="1085.0" y="78.0" width="405.0" height="260.0" fill="#ffffff" stroke="#cbd5e1" stroke-width="1"/>
<text x="1085.0" y="67.0" font-size="16" font-weight="700" font-family="Arial" fill="#0f172a">P</text>
<line x1="1186.2" y1="78.0" x2="1186.2" y2="338.0" stroke="#e2e8f0" stroke-dasharray="4 4"/>
<line x1="1085.0" y1="143.0" x2="1490.0" y2="143.0" stroke="#e2e8f0" stroke-dasharray="4 4"/>
<line x1="1287.5" y1="78.0" x2="1287.5" y2="338.0" stroke="#e2e8f0" stroke-dasharray="4 4"/>
<line x1="1085.0" y1="208.0" x2="1490.0" y2="208.0" stroke="#e2e8f0" stroke-dasharray="4 4"/>
<line x1="1388.8" y1="78.0" x2="1388.8" y2="338.0" stroke="#e2e8f0" stroke-dasharray="4 4"/>
<line x1="1085.0" y1="273.0" x2="1490.0" y2="273.0" stroke="#e2e8f0" stroke-dasharray="4 4"/>
<line x1="1085.0" y1="338.0" x2="1490.0" y2="338.0" stroke="#475569" stroke-width="1"/>
<line x1="1085.0" y1="78.0" x2="1085.0" y2="338.0" stroke="#475569" stroke-width="1"/>
<line x1="1080.0" y1="332.2" x2="1085.0" y2="332.2" stroke="#475569" stroke-width="1"/>
<text x="1076.0" y="336.2" text-anchor="end" font-size="10" font-family="Arial" fill="#334155">15</text>
<line x1="1080.0" y1="263.8" x2="1085.0" y2="263.8" stroke="#475569" stroke-width="1"/>
<text x="1076.0" y="267.8" text-anchor="end" font-size="10" font-family="Arial" fill="#334155">16</text>
<line x1="1080.0" y1="195.4" x2="1085.0" y2="195.4" stroke="#475569" stroke-width="1"/>
<text x="1076.0" y="199.4" text-anchor="end" font-size="10" font-family="Arial" fill="#334155">17</text>
<line x1="1080.0" y1="127.1" x2="1085.0" y2="127.1" stroke="#475569" stroke-width="1"/>
<text x="1076.0" y="131.1" text-anchor="end" font-size="10" font-family="Arial" fill="#334155">18</text>
<line x1="1080.0" y1="58.7" x2="1085.0" y2="58.7" stroke="#475569" stroke-width="1"/>
<text x="1076.0" y="62.7" text-anchor="end" font-size="10" font-family="Arial" fill="#334155">19</text>
<line x1="1132.9" y1="338.0" x2="1132.9" y2="343.0" stroke="#475569" stroke-width="1"/>
<text x="1132.9" y="356.0" text-anchor="middle" font-size="10" font-family="Arial" fill="#334155">-5.0e-04</text>
<line x1="1287.5" y1="338.0" x2="1287.5" y2="343.0" stroke="#475569" stroke-width="1"/>
<text x="1287.5" y="356.0" text-anchor="middle" font-size="10" font-family="Arial" fill="#334155">0</text>
<line x1="1442.1" y1="338.0" x2="1442.1" y2="343.0" stroke="#475569" stroke-width="1"/>
<text x="1442.1" y="356.0" text-anchor="middle" font-size="10" font-family="Arial" fill="#334155">5.0e-04</text>
<polyline points="1103.41,99.13 1106.19,99.07 1108.97,98.98 1111.76,98.88 1114.54,98.78 1117.32,98.69 1120.10,98.60 1122.88,98.50 1125.67,98.41 1128.45,98.31 1131.23,98.22 1134.01,98.12 1136.80,98.01 1139.58,97.91 1142.36,97.80 1145.14,97.68 1147.92,97.55 1150.71,97.42 1153.49,97.29 1156.27,97.16 1159.05,97.01 1161.84,96.85 1164.62,96.68 1167.40,96.49 1170.18,96.31 1172.96,96.13 1175.75,95.94 1178.53,95.76 1181.31,95.57 1184.09,95.37 1186.88,95.16 1189.66,94.95 1192.44,94.73 1195.22,94.52 1198.00,94.30 1200.79,94.08 1203.57,93.86 1206.35,93.65 1209.13,93.44 1211.92,93.23 1214.70,93.02 1217.48,92.82 1220.26,92.62 1223.04,92.43 1225.83,92.25 1228.61,92.07 1231.39,91.91 1234.17,91.75 1236.96,91.59 1239.74,91.43 1242.49,91.28 1245.22,91.14 1247.95,91.02 1250.68,90.91 1253.40,90.80 1256.13,90.70 1258.86,90.60 1261.59,90.51 1264.31,90.42 1267.04,90.35 1269.77,90.29 1272.50,90.24 1275.23,90.21 1277.95,90.17 1280.68,90.13 1283.41,90.08 1286.14,90.06 1288.86,90.06 1291.59,90.08 1294.32,90.13 1297.05,90.17 1299.77,90.21 1302.50,90.24 1305.23,90.29 1307.96,90.35 1310.69,90.42 1313.41,90.51 1316.14,90.60 1318.87,90.70 1321.60,90.80 1324.32,90.91 1327.05,91.02 1329.78,91.14 1332.51,91.28 1335.26,91.43 1338.04,91.59 1340.83,91.75 1343.61,91.91 1346.39,92.07 1349.17,92.25 1351.96,92.43 1354.74,92.62 1357.52,92.82 1360.30,93.02 1363.08,93.23 1365.87,93.44 1368.65,93.65 1371.43,93.86 1374.21,94.08 1377.00,94.30 1379.78,94.52 1382.56,94.73 1385.34,94.95 1388.12,95.16 1390.91,95.37 1393.69,95.57 1396.47,95.76 1399.25,95.94 1402.04,96.13 1404.82,96.31 1407.60,96.49 1410.38,96.68 1413.16,96.85 1415.95,97.01 1418.73,97.16 1421.51,97.29 1424.29,97.42 1427.08,97.55 1429.86,97.68 1432.64,97.80 1435.42,97.91 1438.20,98.01 1440.99,98.12 1443.77,98.22 1446.55,98.31 1449.33,98.41 1452.12,98.50 1454.90,98.60 1457.68,98.69 1460.46,98.78 1463.24,98.88 1466.03,98.98 1468.81,99.07 1471.59,99.13" fill="none" stroke="#3b82f6" stroke-width="2.2" stroke-linejoin="round" stroke-linecap="round"/>
<text x="1287.5" y="375.0" text-anchor="middle" font-size="11" font-family="Arial" fill="#3b82f6">y=0.000199 cm profile vs x</text>
<text x="1484.0" y="93.0" text-anchor="end" font-size="10" font-family="Arial" fill="#64748b">log10</text>
<rect x="105.0" y="422.0" width="405.0" height="260.0" fill="#ffffff" stroke="#cbd5e1" stroke-width="1"/>
<text x="105.0" y="411.0" font-size="16" font-weight="700" font-family="Arial" fill="#0f172a">R_sp</text>
<line x1="206.2" y1="422.0" x2="206.2" y2="682.0" stroke="#e2e8f0" stroke-dasharray="4 4"/>
<line x1="105.0" y1="487.0" x2="510.0" y2="487.0" stroke="#e2e8f0" stroke-dasharray="4 4"/>
<line x1="307.5" y1="422.0" x2="307.5" y2="682.0" stroke="#e2e8f0" stroke-dasharray="4 4"/>
<line x1="105.0" y1="552.0" x2="510.0" y2="552.0" stroke="#e2e8f0" stroke-dasharray="4 4"/>
<line x1="408.8" y1="422.0" x2="408.8" y2="682.0" stroke="#e2e8f0" stroke-dasharray="4 4"/>
<line x1="105.0" y1="617.0" x2="510.0" y2="617.0" stroke="#e2e8f0" stroke-dasharray="4 4"/>
<line x1="105.0" y1="682.0" x2="510.0" y2="682.0" stroke="#475569" stroke-width="1"/>
<line x1="105.0" y1="422.0" x2="105.0" y2="682.0" stroke="#475569" stroke-width="1"/>
<line x1="100.0" y1="681.5" x2="105.0" y2="681.5" stroke="#475569" stroke-width="1"/>
<text x="96.0" y="685.5" text-anchor="end" font-size="10" font-family="Arial" fill="#334155">20</text>
<line x1="100.0" y1="611.6" x2="105.0" y2="611.6" stroke="#475569" stroke-width="1"/>
<text x="96.0" y="615.6" text-anchor="end" font-size="10" font-family="Arial" fill="#334155">22</text>
<line x1="100.0" y1="541.7" x2="105.0" y2="541.7" stroke="#475569" stroke-width="1"/>
<text x="96.0" y="545.7" text-anchor="end" font-size="10" font-family="Arial" fill="#334155">24</text>
<line x1="100.0" y1="471.8" x2="105.0" y2="471.8" stroke="#475569" stroke-width="1"/>
<text x="96.0" y="475.8" text-anchor="end" font-size="10" font-family="Arial" fill="#334155">26</text>
<line x1="100.0" y1="401.9" x2="105.0" y2="401.9" stroke="#475569" stroke-width="1"/>
<text x="96.0" y="405.9" text-anchor="end" font-size="10" font-family="Arial" fill="#334155">28</text>
<line x1="152.9" y1="682.0" x2="152.9" y2="687.0" stroke="#475569" stroke-width="1"/>
<text x="152.9" y="700.0" text-anchor="middle" font-size="10" font-family="Arial" fill="#334155">-5.0e-04</text>
<line x1="307.5" y1="682.0" x2="307.5" y2="687.0" stroke="#475569" stroke-width="1"/>
<text x="307.5" y="700.0" text-anchor="middle" font-size="10" font-family="Arial" fill="#334155">0</text>
<line x1="462.1" y1="682.0" x2="462.1" y2="687.0" stroke="#475569" stroke-width="1"/>
<text x="462.1" y="700.0" text-anchor="middle" font-size="10" font-family="Arial" fill="#334155">5.0e-04</text>
<polyline points="123.41,443.32 126.19,443.27 128.97,443.17 131.76,443.07 134.54,442.97 137.32,442.88 140.10,442.78 142.88,442.69 145.67,442.59 148.45,442.49 151.23,442.39 154.01,442.29 156.80,442.19 159.58,442.08 162.36,441.96 165.14,441.84 167.92,441.72 170.71,441.58 173.49,441.45 176.27,441.31 179.05,441.16 181.84,441.00 184.62,440.82 187.40,440.63 190.18,440.45 192.96,440.26 195.75,440.07 198.53,439.88 201.31,439.69 204.09,439.48 206.88,439.27 209.66,439.05 212.44,438.84 215.22,438.62 218.00,438.39 220.79,438.17 223.57,437.94 226.35,437.73 229.13,437.51 231.92,437.30 234.70,437.09 237.48,436.88 240.26,436.68 243.04,436.48 245.83,436.30 248.61,436.12 251.39,435.96 254.17,435.79 256.96,435.62 259.74,435.46 262.49,435.31 265.22,435.17 267.95,435.05 270.68,434.93 273.40,434.82 276.13,434.72 278.86,434.62 281.59,434.52 284.31,434.43 287.04,434.36 289.77,434.30 292.50,434.25 295.23,434.21 297.95,434.18 300.68,434.13 303.41,434.09 306.14,434.06 308.86,434.06 311.59,434.09 314.32,434.13 317.05,434.18 319.77,434.21 322.50,434.25 325.23,434.30 327.96,434.36 330.69,434.43 333.41,434.52 336.14,434.62 338.87,434.72 341.60,434.82 344.32,434.93 347.05,435.05 349.78,435.17 352.51,435.31 355.26,435.46 358.04,435.62 360.83,435.79 363.61,435.96 366.39,436.12 369.17,436.30 371.96,436.48 374.74,436.68 377.52,436.88 380.30,437.09 383.08,437.30 385.87,437.51 388.65,437.73 391.43,437.94 394.21,438.17 397.00,438.39 399.78,438.62 402.56,438.84 405.34,439.05 408.12,439.27 410.91,439.48 413.69,439.69 416.47,439.88 419.25,440.07 422.04,440.26 424.82,440.45 427.60,440.63 430.38,440.82 433.16,441.00 435.95,441.16 438.73,441.31 441.51,441.45 444.29,441.58 447.08,441.72 449.86,441.84 452.64,441.96 455.42,442.08 458.20,442.19 460.99,442.29 463.77,442.39 466.55,442.49 469.33,442.59 472.12,442.69 474.90,442.78 477.68,442.88 480.46,442.97 483.24,443.07 486.03,443.17 488.81,443.27 491.59,443.32" fill="none" stroke="#3b82f6" stroke-width="2.2" stroke-linejoin="round" stroke-linecap="round"/>
<text x="307.5" y="719.0" text-anchor="middle" font-size="11" font-family="Arial" fill="#3b82f6">y=0.000199 cm profile vs x</text>
<text x="504.0" y="437.0" text-anchor="end" font-size="10" font-family="Arial" fill="#64748b">log10</text>
<rect x="595.0" y="422.0" width="405.0" height="260.0" fill="#ffffff" stroke="#cbd5e1" stroke-width="1"/>
<text x="595.0" y="411.0" font-size="16" font-weight="700" font-family="Arial" fill="#0f172a">R_stim</text>
<line x1="696.2" y1="422.0" x2="696.2" y2="682.0" stroke="#e2e8f0" stroke-dasharray="4 4"/>
<line x1="595.0" y1="487.0" x2="1000.0" y2="487.0" stroke="#e2e8f0" stroke-dasharray="4 4"/>
<line x1="797.5" y1="422.0" x2="797.5" y2="682.0" stroke="#e2e8f0" stroke-dasharray="4 4"/>
<line x1="595.0" y1="552.0" x2="1000.0" y2="552.0" stroke="#e2e8f0" stroke-dasharray="4 4"/>
<line x1="898.8" y1="422.0" x2="898.8" y2="682.0" stroke="#e2e8f0" stroke-dasharray="4 4"/>
<line x1="595.0" y1="617.0" x2="1000.0" y2="617.0" stroke="#e2e8f0" stroke-dasharray="4 4"/>
<line x1="595.0" y1="682.0" x2="1000.0" y2="682.0" stroke="#475569" stroke-width="1"/>
<line x1="595.0" y1="422.0" x2="595.0" y2="682.0" stroke="#475569" stroke-width="1"/>
<line x1="590.0" y1="616.8" x2="595.0" y2="616.8" stroke="#475569" stroke-width="1"/>
<text x="586.0" y="620.8" text-anchor="end" font-size="10" font-family="Arial" fill="#334155">10</text>
<line x1="590.0" y1="500.3" x2="595.0" y2="500.3" stroke="#475569" stroke-width="1"/>
<text x="586.0" y="504.3" text-anchor="end" font-size="10" font-family="Arial" fill="#334155">15</text>
<line x1="590.0" y1="383.9" x2="595.0" y2="383.9" stroke="#475569" stroke-width="1"/>
<text x="586.0" y="387.9" text-anchor="end" font-size="10" font-family="Arial" fill="#334155">20</text>
<line x1="642.9" y1="682.0" x2="642.9" y2="687.0" stroke="#475569" stroke-width="1"/>
<text x="642.9" y="700.0" text-anchor="middle" font-size="10" font-family="Arial" fill="#334155">-5.0e-04</text>
<line x1="797.5" y1="682.0" x2="797.5" y2="687.0" stroke="#475569" stroke-width="1"/>
<text x="797.5" y="700.0" text-anchor="middle" font-size="10" font-family="Arial" fill="#334155">0</text>
<line x1="952.1" y1="682.0" x2="952.1" y2="687.0" stroke="#475569" stroke-width="1"/>
<text x="952.1" y="700.0" text-anchor="middle" font-size="10" font-family="Arial" fill="#334155">5.0e-04</text>
<polyline points="613.41,443.34 616.19,443.28 618.97,443.19 621.76,443.09 624.54,442.99 627.32,442.89 630.10,442.80 632.88,442.70 635.67,442.61 638.45,442.51 641.23,442.41 644.01,442.30 646.80,442.20 649.58,442.09 652.36,441.98 655.14,441.86 657.92,441.73 660.71,441.60 663.49,441.46 666.27,441.33 669.05,441.18 671.84,441.02 674.62,440.83 677.40,440.65 680.18,440.46 682.96,440.27 685.75,440.08 688.53,439.90 691.31,439.70 694.09,439.49 696.88,439.28 699.66,439.07 702.44,438.85 705.22,438.63 708.00,438.40 710.79,438.18 713.57,437.95 716.35,437.74 719.13,437.52 721.92,437.31 724.70,437.10 727.48,436.89 730.26,436.69 733.04,436.49 735.83,436.30 738.61,436.13 741.39,435.96 744.17,435.79 746.96,435.63 749.74,435.47 752.49,435.32 755.22,435.18 757.95,435.05 760.68,434.94 763.40,434.83 766.13,434.72 768.86,434.62 771.59,434.52 774.31,434.44 777.04,434.36 779.77,434.30 782.50,434.25 785.23,434.21 787.95,434.18 790.68,434.13 793.41,434.09 796.14,434.06 798.86,434.06 801.59,434.09 804.32,434.13 807.05,434.18 809.77,434.21 812.50,434.25 815.23,434.30 817.96,434.36 820.69,434.44 823.41,434.52 826.14,434.62 828.87,434.72 831.60,434.83 834.32,434.94 837.05,435.05 839.78,435.18 842.51,435.32 845.26,435.47 848.04,435.63 850.83,435.79 853.61,435.96 856.39,436.13 859.17,436.30 861.96,436.49 864.74,436.69 867.52,436.89 870.30,437.10 873.08,437.31 875.87,437.52 878.65,437.74 881.43,437.95 884.21,438.18 887.00,438.40 889.78,438.63 892.56,438.85 895.34,439.07 898.12,439.28 900.91,439.49 903.69,439.70 906.47,439.90 909.25,440.08 912.04,440.27 914.82,440.46 917.60,440.65 920.38,440.83 923.16,441.02 925.95,441.18 928.73,441.33 931.51,441.46 934.29,441.60 937.08,441.73 939.86,441.86 942.64,441.98 945.42,442.09 948.20,442.20 950.99,442.30 953.77,442.41 956.55,442.51 959.33,442.61 962.12,442.70 964.90,442.80 967.68,442.89 970.46,442.99 973.24,443.09 976.03,443.19 978.81,443.28 981.59,443.34" fill="none" stroke="#3b82f6" stroke-width="2.2" stroke-linejoin="round" stroke-linecap="round"/>
<text x="797.5" y="719.0" text-anchor="middle" font-size="11" font-family="Arial" fill="#3b82f6">y=0.000199 cm profile vs x</text>
<text x="994.0" y="437.0" text-anchor="end" font-size="10" font-family="Arial" fill="#64748b">log10</text>
<rect x="1085.0" y="422.0" width="405.0" height="260.0" fill="#ffffff" stroke="#cbd5e1" stroke-width="1"/>
<text x="1085.0" y="411.0" font-size="16" font-weight="700" font-family="Arial" fill="#0f172a">R_SRH</text>
<line x1="1186.2" y1="422.0" x2="1186.2" y2="682.0" stroke="#e2e8f0" stroke-dasharray="4 4"/>
<line x1="1085.0" y1="487.0" x2="1490.0" y2="487.0" stroke="#e2e8f0" stroke-dasharray="4 4"/>
<line x1="1287.5" y1="422.0" x2="1287.5" y2="682.0" stroke="#e2e8f0" stroke-dasharray="4 4"/>
<line x1="1085.0" y1="552.0" x2="1490.0" y2="552.0" stroke="#e2e8f0" stroke-dasharray="4 4"/>
<line x1="1388.8" y1="422.0" x2="1388.8" y2="682.0" stroke="#e2e8f0" stroke-dasharray="4 4"/>
<line x1="1085.0" y1="617.0" x2="1490.0" y2="617.0" stroke="#e2e8f0" stroke-dasharray="4 4"/>
<line x1="1085.0" y1="682.0" x2="1490.0" y2="682.0" stroke="#475569" stroke-width="1"/>
<line x1="1085.0" y1="422.0" x2="1085.0" y2="682.0" stroke="#475569" stroke-width="1"/>
<line x1="1080.0" y1="660.0" x2="1085.0" y2="660.0" stroke="#475569" stroke-width="1"/>
<text x="1076.0" y="664.0" text-anchor="end" font-size="10" font-family="Arial" fill="#334155">23</text>
<line x1="1080.0" y1="590.2" x2="1085.0" y2="590.2" stroke="#475569" stroke-width="1"/>
<text x="1076.0" y="594.2" text-anchor="end" font-size="10" font-family="Arial" fill="#334155">24</text>
<line x1="1080.0" y1="520.5" x2="1085.0" y2="520.5" stroke="#475569" stroke-width="1"/>
<text x="1076.0" y="524.5" text-anchor="end" font-size="10" font-family="Arial" fill="#334155">25</text>
<line x1="1080.0" y1="450.7" x2="1085.0" y2="450.7" stroke="#475569" stroke-width="1"/>
<text x="1076.0" y="454.7" text-anchor="end" font-size="10" font-family="Arial" fill="#334155">26</text>
<line x1="1132.9" y1="682.0" x2="1132.9" y2="687.0" stroke="#475569" stroke-width="1"/>
<text x="1132.9" y="700.0" text-anchor="middle" font-size="10" font-family="Arial" fill="#334155">-5.0e-04</text>
<line x1="1287.5" y1="682.0" x2="1287.5" y2="687.0" stroke="#475569" stroke-width="1"/>
<text x="1287.5" y="700.0" text-anchor="middle" font-size="10" font-family="Arial" fill="#334155">0</text>
<line x1="1442.1" y1="682.0" x2="1442.1" y2="687.0" stroke="#475569" stroke-width="1"/>
<text x="1442.1" y="700.0" text-anchor="middle" font-size="10" font-family="Arial" fill="#334155">5.0e-04</text>
<polyline points="1103.41,443.30 1106.19,443.24 1108.97,443.15 1111.76,443.04 1114.54,442.95 1117.32,442.85 1120.10,442.76 1122.88,442.66 1125.67,442.57 1128.45,442.47 1131.23,442.37 1134.01,442.27 1136.80,442.16 1139.58,442.05 1142.36,441.94 1145.14,441.82 1147.92,441.69 1150.71,441.56 1153.49,441.43 1156.27,441.29 1159.05,441.14 1161.84,440.98 1164.62,440.80 1167.40,440.62 1170.18,440.43 1172.96,440.24 1175.75,440.06 1178.53,439.87 1181.31,439.67 1184.09,439.47 1186.88,439.26 1189.66,439.04 1192.44,438.82 1195.22,438.61 1198.00,438.38 1200.79,438.16 1203.57,437.93 1206.35,437.72 1209.13,437.50 1211.92,437.29 1214.70,437.08 1217.48,436.87 1220.26,436.67 1223.04,436.48 1225.83,436.29 1228.61,436.12 1231.39,435.95 1234.17,435.78 1236.96,435.62 1239.74,435.46 1242.49,435.31 1245.22,435.17 1247.95,435.04 1250.68,434.93 1253.40,434.82 1256.13,434.72 1258.86,434.61 1261.59,434.52 1264.31,434.43 1267.04,434.36 1269.77,434.30 1272.50,434.25 1275.23,434.21 1277.95,434.17 1280.68,434.13 1283.41,434.09 1286.14,434.06 1288.86,434.06 1291.59,434.09 1294.32,434.13 1297.05,434.17 1299.77,434.21 1302.50,434.25 1305.23,434.30 1307.96,434.36 1310.69,434.43 1313.41,434.52 1316.14,434.61 1318.87,434.72 1321.60,434.82 1324.32,434.93 1327.05,435.04 1329.78,435.17 1332.51,435.31 1335.26,435.46 1338.04,435.62 1340.83,435.78 1343.61,435.95 1346.39,436.12 1349.17,436.29 1351.96,436.48 1354.74,436.67 1357.52,436.87 1360.30,437.08 1363.08,437.29 1365.87,437.50 1368.65,437.72 1371.43,437.93 1374.21,438.16 1377.00,438.38 1379.78,438.61 1382.56,438.82 1385.34,439.04 1388.12,439.26 1390.91,439.47 1393.69,439.67 1396.47,439.87 1399.25,440.06 1402.04,440.24 1404.82,440.43 1407.60,440.62 1410.38,440.80 1413.16,440.98 1415.95,441.14 1418.73,441.29 1421.51,441.43 1424.29,441.56 1427.08,441.69 1429.86,441.82 1432.64,441.94 1435.42,442.05 1438.20,442.16 1440.99,442.27 1443.77,442.37 1446.55,442.47 1449.33,442.57 1452.12,442.66 1454.90,442.76 1457.68,442.85 1460.46,442.95 1463.24,443.04 1466.03,443.15 1468.81,443.24 1471.59,443.30" fill="none" stroke="#3b82f6" stroke-width="2.2" stroke-linejoin="round" stroke-linecap="round"/>
<text x="1287.5" y="719.0" text-anchor="middle" font-size="11" font-family="Arial" fill="#3b82f6">y=0.000199 cm profile vs x</text>
<text x="1484.0" y="437.0" text-anchor="end" font-size="10" font-family="Arial" fill="#64748b">log10</text>
<rect x="105.0" y="766.0" width="405.0" height="260.0" fill="#ffffff" stroke="#cbd5e1" stroke-width="1"/>
<text x="105.0" y="755.0" font-size="16" font-weight="700" font-family="Arial" fill="#0f172a">T</text>
<line x1="206.2" y1="766.0" x2="206.2" y2="1026.0" stroke="#e2e8f0" stroke-dasharray="4 4"/>
<line x1="105.0" y1="831.0" x2="510.0" y2="831.0" stroke="#e2e8f0" stroke-dasharray="4 4"/>
<line x1="307.5" y1="766.0" x2="307.5" y2="1026.0" stroke="#e2e8f0" stroke-dasharray="4 4"/>
<line x1="105.0" y1="896.0" x2="510.0" y2="896.0" stroke="#e2e8f0" stroke-dasharray="4 4"/>
<line x1="408.8" y1="766.0" x2="408.8" y2="1026.0" stroke="#e2e8f0" stroke-dasharray="4 4"/>
<line x1="105.0" y1="961.0" x2="510.0" y2="961.0" stroke="#e2e8f0" stroke-dasharray="4 4"/>
<line x1="105.0" y1="1026.0" x2="510.0" y2="1026.0" stroke="#475569" stroke-width="1"/>
<line x1="105.0" y1="766.0" x2="105.0" y2="1026.0" stroke="#475569" stroke-width="1"/>
<line x1="100.0" y1="1014.2" x2="105.0" y2="1014.2" stroke="#475569" stroke-width="1"/>
<text x="96.0" y="1018.2" text-anchor="end" font-size="10" font-family="Arial" fill="#334155">300</text>
<line x1="100.0" y1="894.0" x2="105.0" y2="894.0" stroke="#475569" stroke-width="1"/>
<text x="96.0" y="898.0" text-anchor="end" font-size="10" font-family="Arial" fill="#334155">300.5</text>
<line x1="100.0" y1="773.8" x2="105.0" y2="773.8" stroke="#475569" stroke-width="1"/>
<text x="96.0" y="777.8" text-anchor="end" font-size="10" font-family="Arial" fill="#334155">301</text>
<line x1="152.9" y1="1026.0" x2="152.9" y2="1031.0" stroke="#475569" stroke-width="1"/>
<text x="152.9" y="1044.0" text-anchor="middle" font-size="10" font-family="Arial" fill="#334155">-5.0e-04</text>
<line x1="307.5" y1="1026.0" x2="307.5" y2="1031.0" stroke="#475569" stroke-width="1"/>
<text x="307.5" y="1044.0" text-anchor="middle" font-size="10" font-family="Arial" fill="#334155">0</text>
<line x1="462.1" y1="1026.0" x2="462.1" y2="1031.0" stroke="#475569" stroke-width="1"/>
<text x="462.1" y="1044.0" text-anchor="middle" font-size="10" font-family="Arial" fill="#334155">5.0e-04</text>
<polyline points="123.41,815.23 126.19,815.14 128.97,814.97 131.76,814.75 134.54,814.50 137.32,814.21 140.10,813.88 142.88,813.52 145.67,813.13 148.45,812.70 151.23,812.24 154.01,811.75 156.80,811.24 159.58,810.69 162.36,810.10 165.14,809.49 167.92,808.85 170.71,808.17 173.49,807.48 176.27,806.76 179.05,806.00 181.84,805.22 184.62,804.40 187.40,803.55 190.18,802.70 192.96,801.83 195.75,800.95 198.53,800.07 201.31,799.18 204.09,798.27 206.88,797.36 209.66,796.45 212.44,795.55 215.22,794.65 218.00,793.77 220.79,792.90 223.57,792.06 226.35,791.26 229.13,790.49 231.92,789.76 234.70,789.06 237.48,788.41 240.26,787.80 243.04,787.25 245.83,786.75 248.61,786.30 251.39,785.90 254.17,785.53 256.96,785.19 259.74,784.87 262.49,784.84 265.22,784.59 267.95,784.36 270.68,784.16 273.40,783.96 276.13,783.77 278.86,783.57 281.59,783.38 284.31,783.20 287.04,783.05 289.77,782.91 292.50,782.80 295.23,782.70 297.95,782.61 300.68,782.51 303.41,782.41 306.14,782.35 308.86,782.35 311.59,782.41 314.32,782.51 317.05,782.61 319.77,782.70 322.50,782.80 325.23,782.91 327.96,783.05 330.69,783.20 333.41,783.38 336.14,783.57 338.87,783.77 341.60,783.96 344.32,784.16 347.05,784.36 349.78,784.59 352.51,784.84 355.26,784.87 358.04,785.19 360.83,785.53 363.61,785.90 366.39,786.30 369.17,786.75 371.96,787.25 374.74,787.80 377.52,788.41 380.30,789.06 383.08,789.76 385.87,790.49 388.65,791.26 391.43,792.06 394.21,792.90 397.00,793.77 399.78,794.65 402.56,795.55 405.34,796.45 408.12,797.36 410.91,798.27 413.69,799.18 416.47,800.07 419.25,800.95 422.04,801.83 424.82,802.70 427.60,803.55 430.38,804.40 433.16,805.22 435.95,806.00 438.73,806.76 441.51,807.48 444.29,808.17 447.08,808.85 449.86,809.49 452.64,810.10 455.42,810.69 458.20,811.24 460.99,811.75 463.77,812.24 466.55,812.70 469.33,813.13 472.12,813.52 474.90,813.88 477.68,814.21 480.46,814.50 483.24,814.75 486.03,814.97 488.81,815.14 491.59,815.23" fill="none" stroke="#3b82f6" stroke-width="2.2" stroke-linejoin="round" stroke-linecap="round"/>
<text x="307.5" y="1063.0" text-anchor="middle" font-size="11" font-family="Arial" fill="#3b82f6">y=0.000199 cm profile vs x</text>
<rect x="595.0" y="766.0" width="405.0" height="260.0" fill="#ffffff" stroke="#cbd5e1" stroke-width="1"/>
<text x="595.0" y="755.0" font-size="16" font-weight="700" font-family="Arial" fill="#0f172a">Pho</text>
<line x1="696.2" y1="766.0" x2="696.2" y2="1026.0" stroke="#e2e8f0" stroke-dasharray="4 4"/>
<line x1="595.0" y1="831.0" x2="1000.0" y2="831.0" stroke="#e2e8f0" stroke-dasharray="4 4"/>
<line x1="797.5" y1="766.0" x2="797.5" y2="1026.0" stroke="#e2e8f0" stroke-dasharray="4 4"/>
<line x1="595.0" y1="896.0" x2="1000.0" y2="896.0" stroke="#e2e8f0" stroke-dasharray="4 4"/>
<line x1="898.8" y1="766.0" x2="898.8" y2="1026.0" stroke="#e2e8f0" stroke-dasharray="4 4"/>
<line x1="595.0" y1="961.0" x2="1000.0" y2="961.0" stroke="#e2e8f0" stroke-dasharray="4 4"/>
<line x1="595.0" y1="1026.0" x2="1000.0" y2="1026.0" stroke="#475569" stroke-width="1"/>
<line x1="595.0" y1="766.0" x2="595.0" y2="1026.0" stroke="#475569" stroke-width="1"/>
<line x1="590.0" y1="974.1" x2="595.0" y2="974.1" stroke="#475569" stroke-width="1"/>
<text x="586.0" y="978.1" text-anchor="end" font-size="10" font-family="Arial" fill="#334155">6</text>
<line x1="590.0" y1="904.1" x2="595.0" y2="904.1" stroke="#475569" stroke-width="1"/>
<text x="586.0" y="908.1" text-anchor="end" font-size="10" font-family="Arial" fill="#334155">8</text>
<line x1="590.0" y1="834.2" x2="595.0" y2="834.2" stroke="#475569" stroke-width="1"/>
<text x="586.0" y="838.2" text-anchor="end" font-size="10" font-family="Arial" fill="#334155">10</text>
<line x1="590.0" y1="764.3" x2="595.0" y2="764.3" stroke="#475569" stroke-width="1"/>
<text x="586.0" y="768.3" text-anchor="end" font-size="10" font-family="Arial" fill="#334155">12</text>
<line x1="642.9" y1="1026.0" x2="642.9" y2="1031.0" stroke="#475569" stroke-width="1"/>
<text x="642.9" y="1044.0" text-anchor="middle" font-size="10" font-family="Arial" fill="#334155">-5.0e-04</text>
<line x1="797.5" y1="1026.0" x2="797.5" y2="1031.0" stroke="#475569" stroke-width="1"/>
<text x="797.5" y="1044.0" text-anchor="middle" font-size="10" font-family="Arial" fill="#334155">0</text>
<line x1="952.1" y1="1026.0" x2="952.1" y2="1031.0" stroke="#475569" stroke-width="1"/>
<text x="952.1" y="1044.0" text-anchor="middle" font-size="10" font-family="Arial" fill="#334155">5.0e-04</text>
<polyline points="613.41,787.36 616.19,787.30 618.97,787.21 621.76,787.10 624.54,787.01 627.32,786.91 630.10,786.82 632.88,786.72 635.67,786.62 638.45,786.52 641.23,786.42 644.01,786.32 646.80,786.22 649.58,786.11 652.36,785.99 655.14,785.87 657.92,785.75 660.71,785.61 663.49,785.48 666.27,785.34 669.05,785.19 671.84,785.03 674.62,784.85 677.40,784.66 680.18,784.47 682.96,784.29 685.75,784.10 688.53,783.91 691.31,783.71 694.09,783.51 696.88,783.29 699.66,783.08 702.44,782.86 705.22,782.64 708.00,782.42 710.79,782.19 713.57,781.96 716.35,781.75 719.13,781.53 721.92,781.32 724.70,781.10 727.48,780.90 730.26,780.69 733.04,780.50 735.83,780.31 738.61,780.13 741.39,779.97 744.17,779.80 746.96,779.63 749.74,779.47 752.49,779.32 755.22,779.18 757.95,779.05 760.68,778.94 763.40,778.83 766.13,778.73 768.86,778.62 771.59,778.52 774.31,778.44 777.04,778.36 779.77,778.30 782.50,778.25 785.23,778.21 787.95,778.18 790.68,778.13 793.41,778.09 796.14,778.06 798.86,778.06 801.59,778.09 804.32,778.13 807.05,778.18 809.77,778.21 812.50,778.25 815.23,778.30 817.96,778.36 820.69,778.44 823.41,778.52 826.14,778.62 828.87,778.73 831.60,778.83 834.32,778.94 837.05,779.05 839.78,779.18 842.51,779.32 845.26,779.47 848.04,779.63 850.83,779.80 853.61,779.97 856.39,780.13 859.17,780.31 861.96,780.50 864.74,780.69 867.52,780.90 870.30,781.10 873.08,781.32 875.87,781.53 878.65,781.75 881.43,781.96 884.21,782.19 887.00,782.42 889.78,782.64 892.56,782.86 895.34,783.08 898.12,783.29 900.91,783.51 903.69,783.71 906.47,783.91 909.25,784.10 912.04,784.29 914.82,784.47 917.60,784.66 920.38,784.85 923.16,785.03 925.95,785.19 928.73,785.34 931.51,785.48 934.29,785.61 937.08,785.75 939.86,785.87 942.64,785.99 945.42,786.11 948.20,786.22 950.99,786.32 953.77,786.42 956.55,786.52 959.33,786.62 962.12,786.72 964.90,786.82 967.68,786.91 970.46,787.01 973.24,787.10 976.03,787.21 978.81,787.30 981.59,787.36" fill="none" stroke="#3b82f6" stroke-width="2.2" stroke-linejoin="round" stroke-linecap="round"/>
<text x="797.5" y="1063.0" text-anchor="middle" font-size="11" font-family="Arial" fill="#3b82f6">y=0.000199 cm profile vs x</text>
<text x="994.0" y="781.0" text-anchor="end" font-size="10" font-family="Arial" fill="#64748b">log10</text>
<rect x="1085.0" y="766.0" width="405.0" height="260.0" fill="#ffffff" stroke="#cbd5e1" stroke-width="1"/>
<text x="1085.0" y="755.0" font-size="16" font-weight="700" font-family="Arial" fill="#0f172a">R_Auger</text>
<line x1="1186.2" y1="766.0" x2="1186.2" y2="1026.0" stroke="#e2e8f0" stroke-dasharray="4 4"/>
<line x1="1085.0" y1="831.0" x2="1490.0" y2="831.0" stroke="#e2e8f0" stroke-dasharray="4 4"/>
<line x1="1287.5" y1="766.0" x2="1287.5" y2="1026.0" stroke="#e2e8f0" stroke-dasharray="4 4"/>
<line x1="1085.0" y1="896.0" x2="1490.0" y2="896.0" stroke="#e2e8f0" stroke-dasharray="4 4"/>
<line x1="1388.8" y1="766.0" x2="1388.8" y2="1026.0" stroke="#e2e8f0" stroke-dasharray="4 4"/>
<line x1="1085.0" y1="961.0" x2="1490.0" y2="961.0" stroke="#e2e8f0" stroke-dasharray="4 4"/>
<line x1="1085.0" y1="1026.0" x2="1490.0" y2="1026.0" stroke="#475569" stroke-width="1"/>
<line x1="1085.0" y1="766.0" x2="1085.0" y2="1026.0" stroke="#475569" stroke-width="1"/>
<line x1="1080.0" y1="950.6" x2="1085.0" y2="950.6" stroke="#475569" stroke-width="1"/>
<text x="1076.0" y="954.6" text-anchor="end" font-size="10" font-family="Arial" fill="#334155">20</text>
<line x1="1080.0" y1="834.1" x2="1085.0" y2="834.1" stroke="#475569" stroke-width="1"/>
<text x="1076.0" y="838.1" text-anchor="end" font-size="10" font-family="Arial" fill="#334155">25</text>
<line x1="1080.0" y1="717.5" x2="1085.0" y2="717.5" stroke="#475569" stroke-width="1"/>
<text x="1076.0" y="721.5" text-anchor="end" font-size="10" font-family="Arial" fill="#334155">30</text>
<line x1="1132.9" y1="1026.0" x2="1132.9" y2="1031.0" stroke="#475569" stroke-width="1"/>
<text x="1132.9" y="1044.0" text-anchor="middle" font-size="10" font-family="Arial" fill="#334155">-5.0e-04</text>
<line x1="1287.5" y1="1026.0" x2="1287.5" y2="1031.0" stroke="#475569" stroke-width="1"/>
<text x="1287.5" y="1044.0" text-anchor="middle" font-size="10" font-family="Arial" fill="#334155">0</text>
<line x1="1442.1" y1="1026.0" x2="1442.1" y2="1031.0" stroke="#475569" stroke-width="1"/>
<text x="1442.1" y="1044.0" text-anchor="middle" font-size="10" font-family="Arial" fill="#334155">5.0e-04</text>
<polyline points="1103.41,787.34 1106.19,787.28 1108.97,787.19 1111.76,787.09 1114.54,786.99 1117.32,786.89 1120.10,786.80 1122.88,786.71 1125.67,786.61 1128.45,786.51 1131.23,786.41 1134.01,786.31 1136.80,786.20 1139.58,786.09 1142.36,785.98 1145.14,785.86 1147.92,785.73 1150.71,785.60 1153.49,785.46 1156.27,785.33 1159.05,785.18 1161.84,785.02 1164.62,784.83 1167.40,784.65 1170.18,784.46 1172.96,784.27 1175.75,784.08 1178.53,783.89 1181.31,783.70 1184.09,783.49 1186.88,783.28 1189.66,783.06 1192.44,782.85 1195.22,782.63 1198.00,782.40 1200.79,782.18 1203.57,781.95 1206.35,781.73 1209.13,781.52 1211.92,781.31 1214.70,781.09 1217.48,780.89 1220.26,780.68 1223.04,780.49 1225.83,780.30 1228.61,780.13 1231.39,779.96 1234.17,779.79 1236.96,779.63 1239.74,779.47 1242.49,779.31 1245.22,779.18 1247.95,779.05 1250.68,778.93 1253.40,778.83 1256.13,778.72 1258.86,778.62 1261.59,778.52 1264.31,778.44 1267.04,778.36 1269.77,778.30 1272.50,778.25 1275.23,778.22 1277.95,778.18 1280.68,778.14 1283.41,778.09 1286.14,778.06 1288.86,778.06 1291.59,778.09 1294.32,778.14 1297.05,778.18 1299.77,778.22 1302.50,778.25 1305.23,778.30 1307.96,778.36 1310.69,778.44 1313.41,778.52 1316.14,778.62 1318.87,778.72 1321.60,778.83 1324.32,778.93 1327.05,779.05 1329.78,779.18 1332.51,779.31 1335.26,779.47 1338.04,779.63 1340.83,779.79 1343.61,779.96 1346.39,780.13 1349.17,780.30 1351.96,780.49 1354.74,780.68 1357.52,780.89 1360.30,781.09 1363.08,781.31 1365.87,781.52 1368.65,781.73 1371.43,781.95 1374.21,782.18 1377.00,782.40 1379.78,782.63 1382.56,782.85 1385.34,783.06 1388.12,783.28 1390.91,783.49 1393.69,783.70 1396.47,783.89 1399.25,784.08 1402.04,784.27 1404.82,784.46 1407.60,784.65 1410.38,784.83 1413.16,785.02 1415.95,785.18 1418.73,785.33 1421.51,785.46 1424.29,785.60 1427.08,785.73 1429.86,785.86 1432.64,785.98 1435.42,786.09 1438.20,786.20 1440.99,786.31 1443.77,786.41 1446.55,786.51 1449.33,786.61 1452.12,786.71 1454.90,786.80 1457.68,786.89 1460.46,786.99 1463.24,787.09 1466.03,787.19 1468.81,787.28 1471.59,787.34" fill="none" stroke="#3b82f6" stroke-width="2.2" stroke-linejoin="round" stroke-linecap="round"/>
<text x="1287.5" y="1063.0" text-anchor="middle" font-size="11" font-family="Arial" fill="#3b82f6">y=0.000199 cm profile vs x</text>
<text x="1484.0" y="781.0" text-anchor="end" font-size="10" font-family="Arial" fill="#64748b">log10</text>
</svg>
