<svg xmlns="http://www.w3.org/2000/svg" width="1500" height="980" viewBox="0 0 1500 980" role="img" aria-label="2D telecom laser ridge cross-section">
  <style>
    .title { fill: #64ffda; font: 44px Arial, sans-serif; }
    .subtitle { fill: #e6f1ff; font: 22px Arial, sans-serif; }
    .note { fill: #d3dce6; font: 18px Arial, sans-serif; }
    .axis { stroke: #8892b0; stroke-width: 1.2; }
    .axis-label { fill: #e6f1ff; font: 18px Arial, sans-serif; }
    .legend-title { fill: #64ffda; font: 24px Arial, sans-serif; }
    .legend-text { fill: #e6f1ff; font: 17px Arial, sans-serif; }
  </style>
  <rect width="100%" height="100%" fill="#0a192f"/>
  <text x="56" y="58" class="title">2D Ridge-Center Cross-Section</text>
  <text x="58" y="96" class="subtitle">Plane perpendicular to the ridge direction at the middle of the telecom laser cavity</text>
  <text x="58" y="125" class="note">Horizontal axis: lateral y. Vertical axis: layer height z, visually scaled by 12.0x.</text>
  <line x1="100" y1="884" x2="1120" y2="884" class="axis"/>
  <line x1="100" y1="190" x2="100" y2="884" class="axis"/>
  <text x="980" y="926" class="axis-label">lateral y (um)</text>
  <text x="114" y="214" class="axis-label">height z (um)</text>
  <rect x="100.00" y="229.68" width="135.98" height="652.69" fill="#2f6ed3" fill-opacity="0.88" stroke="#0a192f" stroke-width="1"/><rect x="100.00" y="216.63" width="135.98" height="13.05" fill="#5aa3ff" fill-opacity="0.88" stroke="#0a192f" stroke-width="1"/><rect x="100.00" y="206.84" width="135.98" height="9.79" fill="#4f86f7" fill-opacity="0.88" stroke="#0a192f" stroke-width="1"/><rect x="100.00" y="205.21" width="135.98" height="1.63" fill="#62d2a2" fill-opacity="0.88" stroke="#0a192f" stroke-width="1"/><rect x="100.00" y="204.69" width="135.98" height="0.52" fill="#ff4f81" fill-opacity="0.88" stroke="#0a192f" stroke-width="1"/><rect x="100.00" y="203.05" width="135.98" height="1.63" fill="#62d2a2" fill-opacity="0.88" stroke="#0a192f" stroke-width="1"/><rect x="167.17" y="191.63" width="1.63" height="11.42" fill="#b75cff" fill-opacity="0.88" stroke="#0a192f" stroke-width="1"/><rect x="100.00" y="199.46" width="67.17" height="3.59" fill="#b75cff" fill-opacity="0.88" stroke="#0a192f" stroke-width="1"/><rect x="168.80" y="199.46" width="67.17" height="3.59" fill="#b75cff" fill-opacity="0.88" stroke="#0a192f" stroke-width="1"/><rect x="100.82" y="197.83" width="65.54" height="1.63" fill="#8ed6ff" fill-opacity="0.88" stroke="#0a192f" stroke-width="1"/><rect x="169.62" y="197.83" width="65.54" height="1.63" fill="#8ed6ff" fill-opacity="0.88" stroke="#0a192f" stroke-width="1"/><rect x="166.68" y="190.00" width="2.61" height="1.63" fill="#f2b84b" fill-opacity="0.88" stroke="#0a192f" stroke-width="1"/><rect x="100.00" y="882.37" width="135.98" height="1.63" fill="#c8ccd4" fill-opacity="0.88" stroke="#0a192f" stroke-width="1"/>
  <rect x="1143" y="180" width="315" height="418" rx="8" fill="#112240" stroke="#233554" stroke-width="2"/>
  <text x="1168" y="208" class="legend-title">Materials</text>
  <rect x="1168" y="213" width="18" height="18" fill="#2f6ed3" stroke="#e6f1ff" stroke-width="1"/><text x="1198" y="228" class="legend-text">InP substrate</text><rect x="1168" y="249" width="18" height="18" fill="#5aa3ff" stroke="#e6f1ff" stroke-width="1"/><text x="1198" y="264" class="legend-text">n-InP buffer</text><rect x="1168" y="285" width="18" height="18" fill="#4f86f7" stroke="#e6f1ff" stroke-width="1"/><text x="1198" y="300" class="legend-text">n-InP cladding</text><rect x="1168" y="321" width="18" height="18" fill="#62d2a2" stroke="#e6f1ff" stroke-width="1"/><text x="1198" y="336" class="legend-text">InGaAsP lower SCH</text><rect x="1168" y="357" width="18" height="18" fill="#ff4f81" stroke="#e6f1ff" stroke-width="1"/><text x="1198" y="372" class="legend-text">InGaAsP MQW active</text><rect x="1168" y="393" width="18" height="18" fill="#62d2a2" stroke="#e6f1ff" stroke-width="1"/><text x="1198" y="408" class="legend-text">InGaAsP upper SCH</text><rect x="1168" y="429" width="18" height="18" fill="#b75cff" stroke="#e6f1ff" stroke-width="1"/><text x="1198" y="444" class="legend-text">p-InP ridge/cladding</text><rect x="1168" y="465" width="18" height="18" fill="#8ed6ff" stroke="#e6f1ff" stroke-width="1"/><text x="1198" y="480" class="legend-text">SiN dielectric</text><rect x="1168" y="501" width="18" height="18" fill="#f2b84b" stroke="#e6f1ff" stroke-width="1"/><text x="1198" y="516" class="legend-text">Au p-contact</text><rect x="1168" y="537" width="18" height="18" fill="#c8ccd4" stroke="#e6f1ff" stroke-width="1"/><text x="1198" y="552" class="legend-text">Ti/Pt/Au n-contact</text>
  <text x="58" y="950" class="note">Physical profile width: 250.0 um; physical height: 106.33 um.</text>
</svg>
